name C:\Users\u0101727\Documents\MyRepositories\upper-imu-dc\Results\main_tracking\Case_10\FLX01_linearAccelerations_groundFrame.mot
datacolumns 4
datarows 47
range 3.51000000 3.97000000
endheader 
time	radius_imu_x	radius_imu_y	radius_imu_z	
          3.51000000	         -0.20647122	          9.79492987	          0.62027954	
          3.52000000	         -0.28158387	          9.79114562	          0.61227337	
          3.53000000	         -0.34178972	          9.78817214	          0.58235128	
          3.54000000	         -0.38244557	          9.78413499	          0.53085311	
          3.55000000	         -0.40355424	          9.77740444	          0.46037007	
          3.56000000	         -0.41076119	          9.76815347	          0.37639425	
          3.57000000	         -0.41270790	          9.75879419	          0.28630329	
          3.58000000	         -0.41718421	          9.75302580	          0.19752715	
          3.59000000	         -0.42850553	          9.75422696	          0.11628627	
          3.60000000	         -0.44689946	          9.76416802	          0.04722117	
          3.61000000	         -0.46856531	          9.78245233	         -0.00677437	
          3.62000000	         -0.48530307	          9.80666049	         -0.04517127	
          3.63000000	         -0.48521656	          9.83300962	         -0.07032823	
          3.64000000	         -0.45562921	          9.85726363	         -0.08671251	
          3.65000000	         -0.38694176	          9.87547315	         -0.09924549	
          3.66000000	         -0.27520546	          9.88432016	         -0.11184847	
          3.67000000	         -0.12316384	          9.88127911	         -0.12635045	
          3.68000000	          0.05925726	          9.86488238	         -0.14133758	
          3.69000000	          0.25468736	          9.83525555	         -0.15110145	
          3.70000000	          0.43985784	          9.79548455	         -0.14583793	
          3.71000000	          0.59612500	          9.75311660	         -0.11479320	
          3.72000000	          0.71142796	          9.70968461	         -0.05622756	
          3.73000000	          0.78757898	          9.66628192	          0.02272711	
          3.74000000	          0.84335226	          9.63192316	          0.11195920	
          3.75000000	          0.89911674	          9.61152538	          0.19752840	
          3.76000000	          0.97357542	          9.60636918	          0.26655573	
          3.77000000	          1.07771290	          9.61442773	          0.31028574	
          3.78000000	          1.21168525	          9.63072033	          0.32529262	
          3.79000000	          1.36442793	          9.64870786	          0.31365267	
          3.80000000	          1.51626875	          9.66225243	          0.28209376	
          3.81000000	          1.64425640	          9.66710995	          0.23997399	
          3.82000000	          1.72853566	          9.66137842	          0.19638924	
          3.83000000	          1.75748657	          9.64505470	          0.15734621	
          3.84000000	          1.72999308	          9.61927059	          0.12419568	
          3.85000000	          1.65494298	          9.58567210	          0.09376978	
          3.86000000	          1.54863726	          9.54614037	          0.06010536	
          3.87000000	          1.43074341	          9.50280328	          0.01701302	
          3.88000000	          1.32016339	          9.45822097	         -0.03960634	
          3.89000000	          1.23179080	          9.41558657	         -0.11031423	
          3.90000000	          1.17483251	          9.37868855	         -0.19179135	
          3.91000000	          1.15249666	          9.35138498	         -0.27748725	
          3.92000000	          1.16253684	          9.33650887	         -0.35901651	
          3.93000000	          1.19833185	          9.33447443	         -0.42788843	
          3.94000000	          1.25052804	          9.34221209	         -0.47705497	
          3.95000000	          1.30937176	          9.35310829	         -0.50195227	
          3.96000000	          1.36743291	          9.35823899	         -0.50096701	
          3.97000000	          1.42166720	          9.34853921	         -0.47532946	
